<svg width="465" height="110" viewBox="0 0 465 110" fill="none" xmlns="http://www.w3.org/2000/svg">
<g clip-path="url(#clip0_387_136)">
<path d="M124.431 0H125.621V110H123.907V0H124.431Z" fill="black"/>
<path fill-rule="evenodd" clip-rule="evenodd" d="M279.074 25.2472V37.0431H289.873C291.925 37.0431 293.541 36.5607 293.585 34.3134C293.694 32.2853 293.694 30.016 293.585 27.9879C293.531 25.7844 291.882 25.2582 289.873 25.2582H279.074V25.2472ZM259.715 37.0431H267.511V14.5257H290.626C297.985 14.5257 304.962 19.3383 305.148 26.497C305.29 29.1828 305.29 32.4059 305.148 35.0917C304.962 42.1956 298.138 47.8414 290.626 47.8414H279.074V65.9957H267.511V47.8414H259.715C257.368 47.8414 255.435 45.9668 255.435 43.6756V41.198C255.435 38.9068 257.357 37.0321 259.715 37.0321V37.0431ZM140.34 14.5257H151.903V66.0066H140.34V14.5257ZM169.111 55.2083H192.095V66.0066H157.461V14.5257H169.1V55.2083H169.111ZM233.619 37.4816L227.887 49.7489H215.035L209.227 37.383V66.0066H197.664V14.5257H211.017L221.456 37.8763L231.829 14.5257H245.259V66.0066H233.619V37.4816ZM321.362 55.2083H344.346V66.0066H309.712V14.5257H321.352V55.2083H321.362ZM365.682 45.3857V66.0066H353.966V45.3857L337.086 14.5257H349.325L359.829 34.127L370.333 14.5257H382.573L365.693 45.3857H365.682ZM408.156 66.3574C405.426 66.5 402.009 66.5 399.279 66.3574C391.821 65.9518 385.063 60.6678 384.975 53.4434C384.811 40.891 384.801 28.1743 384.975 15.6219L384.986 14.5257H396.56L396.538 15.6439C396.44 21.5747 396.484 27.5384 396.484 33.4693C396.484 39.4001 396.44 45.3638 396.538 51.2947C396.571 53.2679 397.073 55.318 399.552 55.4166C402.183 55.5263 405.262 55.5482 407.894 55.4166C410.438 55.3289 411.027 53.3776 411.06 51.2947C411.158 45.3638 411.126 39.4001 411.115 33.4693C411.115 27.5384 411.148 21.5747 411.06 15.6439L411.038 14.5257H422.601L422.612 15.6219C422.787 28.1743 422.776 40.891 422.612 53.4434C422.514 60.7445 415.657 65.9628 408.156 66.3574ZM450.51 66.3574C447.682 66.489 444.33 66.489 441.502 66.3574C434.284 66.0286 427.111 61.3475 427.111 54.134V49.9353H438.827V52.7308C438.827 54.5725 439.897 55.3509 441.764 55.4276C444.472 55.5372 447.551 55.5372 450.259 55.4276C452.18 55.3509 453.13 54.4848 453.272 52.654C453.381 51.2398 453.381 49.442 453.272 48.0278C453.152 46.4382 452.442 45.3309 450.695 45.024C447.016 44.3881 443.336 43.829 439.646 43.2699C432.898 42.2394 428.214 37.8434 427.875 31.3644V26.2448C428.246 19.0752 434.907 14.5914 442.179 14.1858C444.548 14.0543 447.562 14.0543 449.931 14.1858C457.061 14.5805 464.235 19.0752 464.235 26.2667V30.1147H452.519V26.9684C452.519 25.6638 450.848 25.017 449.647 24.9731C447.452 24.8416 444.646 24.8526 442.452 24.9731C441.12 25.017 439.591 25.7405 439.427 27.078C439.329 28.0756 439.34 29.5117 439.427 30.5312C439.515 31.5069 440.235 32.2962 441.272 32.4936C444.908 33.1842 448.533 33.6995 452.202 34.1709C460.413 35.2233 464.628 40.4635 464.912 47.8852C465.043 49.8256 465.032 52.2484 464.912 54.1888C464.628 61.3365 457.814 66.0286 450.521 66.3574H450.51Z" fill="black"/>
<path fill-rule="evenodd" clip-rule="evenodd" d="M12.8745 38.6876C15.1893 32.3402 19.3821 26.6834 23.6951 22.6272C19.9499 22.1997 17.3294 19.3274 16.7835 15.6549C-2.5646 34.7739 -4.50815 61.7861 7.52434 82.407C31.1198 122.87 89.0439 117.422 106.066 75.2702C107.737 71.1044 109.495 64.154 109.724 59.3085L99.3622 59.2866C98.1938 71.4333 92.6471 80.6968 86.0849 87.384C73.976 99.7281 56.0911 103.083 40.6628 98.1714C19.1419 91.3087 2.65457 66.7632 12.8855 38.6986L12.8745 38.6876ZM25.1145 8.84707C28.27 8.84707 30.825 11.4123 30.825 14.5806C30.825 17.7488 28.27 20.3141 25.1145 20.3141C21.959 20.3141 19.404 17.7488 19.404 14.5806C19.404 11.4123 21.959 8.84707 25.1145 8.84707ZM25.1145 10.2722C27.4839 10.2722 29.4056 12.2017 29.4056 14.5806C29.4056 16.9595 27.4839 18.8889 25.1145 18.8889C22.7451 18.8889 20.8234 16.9595 20.8234 14.5806C20.8234 12.2017 22.7451 10.2722 25.1145 10.2722ZM25.1145 9.80082C27.7459 9.80082 29.8751 11.9386 29.8751 14.5806C29.8751 17.2226 27.7459 19.3603 25.1145 19.3603C22.4831 19.3603 20.3539 17.2226 20.3539 14.5806C20.3539 11.9386 22.4831 9.80082 25.1145 9.80082ZM74.7076 34.149V45.5612H84.2615V26.4971C82.984 26.2011 78.3435 22.7478 77.4809 22.7917C76.258 22.8465 74.2599 23.57 73.3646 23.9976C66.9552 27.0671 60.5896 33.6667 56.2876 39.1371C56.0583 39.4331 55.698 39.9483 55.4578 40.1237C51.2977 33.875 44.2223 28.2401 37.8239 24.3813L32.9869 21.7173C31.7094 23.6248 28.2919 25.5433 26.0098 25.7406V65.6778C34.1662 71.1592 44.5499 81.0147 49.6162 89.4341C50.6098 91.0785 50.1731 91.8788 52.0511 91.8678C54.0492 91.8678 56.0365 91.8568 58.0346 91.8678C59.5632 91.8788 59.2466 91.9993 60.3057 90.64C73.2008 74.7988 82.3398 67.7169 97.2985 53.3338C109.091 41.9874 106.863 35.5413 102.976 28.2949C91.0202 7.50961 71.5411 0.0988102 55.0647 0.0111084C39.964 0.0878475 30.1153 6.02965 28.4556 6.91763C31.8841 8.52915 33.8058 11.9934 33.118 15.7317C33.118 15.7426 33.118 15.7426 33.118 15.7536C45.4234 8.54011 60.9171 8.59492 73.6484 14.5477C77.9177 16.5429 85.0476 21.2459 89.9938 26.8259C95.1148 32.6143 97.91 39.3454 92.7454 45.0131C88.094 50.1217 77.612 58.1245 71.956 63.1674C66.2564 68.4624 61.1901 74.3932 55.9709 80.1815C50.457 72.7049 43.1632 66.4672 36.47 62.5535V34.4231C42.3771 39.751 45.3251 43.6099 49.6708 50.0888C49.9329 50.5164 50.1076 50.8891 50.3369 51.3605C50.6426 51.9964 50.5443 52.3801 50.5443 53.2242C50.5334 58.4534 50.5443 63.6826 50.5443 68.9119H60.3603L60.3712 51.0316C60.5132 49.9573 63.8871 45.1118 64.6295 44.0374C67.3046 40.2114 69.9688 37.3392 74.6857 34.16L74.7076 34.149Z" fill="black"/>
<path d="M148.834 96.1444C147.173 96.1444 145.707 95.7547 144.436 94.9752C143.182 94.1788 142.199 93.0434 141.488 91.5692C140.776 90.0949 140.42 88.3326 140.42 86.2822C140.42 84.2488 140.776 82.5119 141.488 81.0715C142.199 79.6312 143.182 78.5297 144.436 77.7672C145.707 77.0046 147.173 76.6234 148.834 76.6234C150.511 76.6234 151.977 77.0131 153.231 77.7926C154.485 78.5551 155.468 79.6566 156.179 81.0969C156.891 82.5204 157.247 84.2488 157.247 86.2822C157.247 88.3326 156.891 90.0949 156.179 91.5692C155.468 93.0434 154.485 94.1788 153.231 94.9752C151.977 95.7547 150.511 96.1444 148.834 96.1444ZM148.834 92.8909C149.766 92.8909 150.57 92.6198 151.248 92.0775C151.943 91.5353 152.477 90.7727 152.85 89.7899C153.222 88.7901 153.409 87.6209 153.409 86.2822C153.409 84.9435 153.222 83.7997 152.85 82.8508C152.477 81.8849 151.943 81.1478 151.248 80.6394C150.57 80.1141 149.766 79.8515 148.834 79.8515C147.902 79.8515 147.088 80.1141 146.393 80.6394C145.716 81.1478 145.19 81.8849 144.818 82.8508C144.462 83.7997 144.284 84.9435 144.284 86.2822C144.284 87.6209 144.462 88.7901 144.818 89.7899C145.19 90.7727 145.716 91.5353 146.393 92.0775C147.088 92.6198 147.902 92.8909 148.834 92.8909ZM162.674 85.3163C161.878 85.3163 161.26 85.0198 160.819 84.4267C160.395 83.8167 160.184 82.9609 160.184 81.8595C160.184 80.5547 160.505 79.4194 161.149 78.4535C161.793 77.4706 162.751 76.6488 164.022 75.9879L164.886 77.6401C164.056 78.0807 163.429 78.589 163.005 79.1652C162.598 79.7413 162.395 80.453 162.395 81.3003L162.573 83.6387L161.226 81.8341C161.446 81.6477 161.675 81.5036 161.912 81.402C162.149 81.2833 162.403 81.224 162.674 81.224C163.234 81.224 163.708 81.402 164.098 81.7578C164.488 82.0967 164.682 82.5712 164.682 83.1812C164.682 83.8251 164.496 84.342 164.123 84.7317C163.751 85.1215 163.268 85.3163 162.674 85.3163ZM176.659 96.1444C174.999 96.1444 173.533 95.7547 172.262 94.9752C171.008 94.1788 170.025 93.0434 169.314 91.5692C168.602 90.0949 168.246 88.3326 168.246 86.2822C168.246 84.2488 168.602 82.5119 169.314 81.0715C170.025 79.6312 171.008 78.5297 172.262 77.7672C173.533 77.0046 174.999 76.6234 176.659 76.6234C178.337 76.6234 179.803 77.0131 181.057 77.7926C182.311 78.5551 183.293 79.6566 184.005 81.0969C184.717 82.5204 185.073 84.2488 185.073 86.2822C185.073 88.3326 184.717 90.0949 184.005 91.5692C183.293 93.0434 182.311 94.1788 181.057 94.9752C179.803 95.7547 178.337 96.1444 176.659 96.1444ZM176.659 93.0688C177.591 93.0688 178.396 92.7977 179.074 92.2555C179.769 91.7132 180.303 90.9337 180.675 89.917C181.048 88.9003 181.235 87.6887 181.235 86.2822C181.235 84.9435 181.048 83.7997 180.675 82.8508C180.303 81.8849 179.769 81.1478 179.074 80.6394C178.396 80.1141 177.591 79.8515 176.659 79.8515C175.727 79.8515 174.914 80.1141 174.219 80.6394C173.541 81.1478 173.016 81.8849 172.643 82.8508C172.287 83.7997 172.11 84.9435 172.11 86.2822C172.11 87.6887 172.287 88.9003 172.643 89.917C173.016 90.9337 173.541 91.7132 174.219 92.2555C174.914 92.7977 175.727 93.0688 176.659 93.0688ZM182.76 100.898C181.421 100.898 180.226 100.669 179.176 100.211C178.125 99.7538 177.236 99.1268 176.507 98.3304C175.778 97.5509 175.211 96.6613 174.804 95.6615L178.617 95.2802C178.871 95.8902 179.227 96.3901 179.684 96.7799C180.159 97.1696 180.701 97.4492 181.311 97.6187C181.921 97.8051 182.539 97.8983 183.166 97.8983C183.573 97.8983 183.946 97.8644 184.285 97.7966C184.641 97.7288 184.954 97.6526 185.225 97.5678L185.912 100.338C185.573 100.491 185.132 100.618 184.59 100.72C184.048 100.838 183.438 100.898 182.76 100.898ZM195.991 96.1444C194.821 96.1444 193.788 95.9834 192.89 95.6615C191.991 95.3226 191.22 94.7973 190.577 94.0856C189.95 93.3739 189.475 92.4588 189.153 91.3404C188.831 90.222 188.67 88.8833 188.67 87.3244V76.9538H192.407V87.6548C192.407 88.9596 192.551 89.9933 192.839 90.7558C193.127 91.5183 193.533 92.0691 194.059 92.408C194.601 92.7299 195.245 92.8909 195.991 92.8909C196.736 92.8909 197.38 92.7299 197.922 92.408C198.465 92.0691 198.88 91.5183 199.168 90.7558C199.473 89.9933 199.625 88.9596 199.625 87.6548V76.9538H203.235V87.3244C203.235 88.8833 203.074 90.222 202.752 91.3404C202.43 92.4588 201.955 93.3739 201.328 94.0856C200.701 94.7973 199.939 95.3226 199.041 95.6615C198.143 95.9834 197.126 96.1444 195.991 96.1444ZM210.717 95.7886L204.973 76.9538H208.938L211.403 86.1297C211.708 87.1634 211.971 88.1716 212.191 89.1545C212.429 90.1204 212.691 91.1371 212.979 92.2046H213.106C213.411 91.1371 213.683 90.1204 213.92 89.1545C214.157 88.1716 214.42 87.1634 214.708 86.1297L217.148 76.9538H220.961L215.216 95.7886H210.717ZM228.909 95.7886V76.9538H233.077L236.28 85.7993C236.484 86.3585 236.678 86.9516 236.865 87.5785C237.051 88.1886 237.238 88.7901 237.424 89.3832H237.551C237.754 88.7901 237.949 88.1886 238.136 87.5785C238.322 86.9516 238.5 86.3585 238.669 85.7993L241.821 76.9538H245.99V95.7886H242.558V87.9344C242.558 87.3244 242.584 86.655 242.635 85.9264C242.686 85.1977 242.745 84.4691 242.813 83.7404C242.897 82.9948 242.974 82.334 243.041 81.7578H242.94L241.389 86.1806L238.492 94.0856H236.331L233.408 86.1806L231.908 81.7578H231.807C231.874 82.334 231.942 82.9948 232.01 83.7404C232.078 84.4691 232.137 85.1977 232.188 85.9264C232.256 86.655 232.29 87.3244 232.29 87.9344V95.7886H228.909ZM248.164 95.7886L254.188 76.9538H258.636L264.66 95.7886H260.695L258.026 85.9772C257.738 84.9944 257.459 83.9777 257.187 82.927C256.933 81.8595 256.662 80.8258 256.374 79.826H256.272C256.035 80.8428 255.773 81.8764 255.484 82.927C255.213 83.9777 254.942 84.9944 254.671 85.9772L251.977 95.7886H248.164ZM251.901 90.9591V88.0361H260.848V90.9591H251.901ZM266.862 95.7886V76.9538H273.395C274.733 76.9538 275.936 77.1317 277.004 77.4876C278.072 77.8265 278.919 78.4196 279.546 79.2668C280.173 80.0972 280.486 81.2325 280.486 82.6729C280.486 84.0624 280.173 85.2062 279.546 86.1043C278.919 86.9855 278.072 87.6379 277.004 88.0615C275.936 88.4682 274.733 88.6715 273.395 88.6715H270.624V95.7886H266.862ZM270.624 85.6976H273.064C274.284 85.6976 275.208 85.4434 275.835 84.9351C276.479 84.4267 276.801 83.6726 276.801 82.6729C276.801 81.6561 276.479 80.9529 275.835 80.5632C275.208 80.1565 274.284 79.9531 273.064 79.9531H270.624V85.6976ZM277.08 95.7886L272.708 87.7056L275.352 85.3672L281.3 95.7886H277.08ZM284.188 95.7886V76.9538H287.95V85.1384H288.026L294.254 76.9538H298.397L292.652 84.3759L299.414 95.7886H295.296L290.416 87.3244L287.95 90.5016V95.7886H284.188ZM298.777 95.7886L304.801 76.9538H309.249L315.273 95.7886H311.308L308.639 85.9772C308.351 84.9944 308.071 83.9777 307.8 82.927C307.546 81.8595 307.275 80.8258 306.987 79.826H306.885C306.648 80.8428 306.385 81.8764 306.097 82.927C305.826 83.9777 305.555 84.9944 305.284 85.9772L302.589 95.7886H298.777ZM302.513 90.9591V88.0361H311.46V90.9591H302.513ZM316.056 95.7886V93.5264L324.826 80.1056H316.87V76.9538H329.452V79.216L320.682 92.6367H329.528V95.7886H316.056ZM332.865 95.7886V76.9538H336.627V95.7886H332.865Z" fill="black"/>
</g>
<defs>
<clipPath id="clip0_387_136">
<rect width="465" height="110" fill="white"/>
</clipPath>
</defs>
</svg>
