<svg width="246" height="246" viewBox="0 0 246 246" fill="none" xmlns="http://www.w3.org/2000/svg">
<path d="M0 81.75H81.75V0H0V81.75ZM13.625 13.625H68.125V68.125H13.625V13.625ZM27.25 27.25H54.5V54.5H27.25V27.25ZM163.5 81.75H245.25V0H163.5V81.75ZM177.125 13.625H231.625V68.125H177.125V13.625ZM190.75 27.25H218V54.5H190.75V27.25ZM0 245.25H81.75V163.5H0V245.25ZM13.625 177.125H68.125V231.625H13.625V177.125ZM27.25 190.75H54.5V218H27.25V190.75ZM231.625 218H245.25V245.25H218V204.375H231.625V218ZM231.625 177.125H245.25V190.75H231.625V177.125ZM231.625 163.5V177.125H218V163.5H231.625ZM95.375 190.75H109V245.25H95.375V190.75ZM40.875 95.375V122.625H13.625V109H0V95.375H40.875ZM95.375 54.5H109V68.125H95.375V54.5ZM136.25 13.625V40.875H122.625V0H149.875V13.625H136.25ZM95.375 13.625H109V27.25H95.375V13.625ZM231.625 122.625H245.25V149.875H218V136.25H231.625V122.625ZM218 95.375V109H190.75V136.25H163.5V122.625H177.125V95.375H218ZM122.625 149.875H109V136.25H95.375V122.625H122.625V149.875ZM204.375 177.125H218V190.75H204.375V177.125ZM231.625 109V122.625H218V109H231.625ZM109 149.875V163.5H95.375V149.875H109ZM190.75 218H204.375V245.25H177.125V218H190.75ZM149.875 218H163.5V231.625H149.875V245.25H122.625V231.625H136.25V218H149.875ZM149.875 204.375V190.75H177.125V204.375H149.875ZM149.875 136.25H163.5V177.125H149.875V190.75H136.25V204.375H122.625V177.125H109V163.5H149.875V149.875H136.25V136.25H149.875ZM27.25 136.25V149.875H13.625V136.25H27.25ZM190.75 190.75H177.125V177.125H190.75V190.75ZM204.375 163.5H177.125V149.875H204.375V163.5ZM68.125 95.375H81.75V109H68.125V122.625H81.75V149.875H68.125V136.25H54.5V149.875H40.875V122.625H54.5V95.375H68.125ZM109 95.375V68.125H149.875V109H122.625V95.375H136.25V81.75H122.625V95.375H109ZM109 40.875H122.625V54.5H109V40.875ZM95.375 95.375H109V109H95.375V95.375ZM136.25 54.5V40.875H149.875V54.5H136.25Z" fill="black"/>
</svg>
